HIERARCHY
ROOT Hips
{
	OFFSET 0.000000 100.052002 0.000000
	CHANNELS 6 Xposition Yposition Zposition Xrotation Yrotation Zrotation
	JOINT Spine
	{
		OFFSET 0.000000 9.717300 -1.180200
		CHANNELS 6 Xposition Yposition Zposition Xrotation Yrotation Zrotation
		JOINT Spine1
		{
			OFFSET 0.000000 11.336784 -1.376941
			CHANNELS 3 Xrotation Yrotation Zrotation
			JOINT Spine2
			{
				OFFSET 0.000000 12.956383 -1.573654
				CHANNELS 3 Xrotation Yrotation Zrotation
				JOINT Neck
				{
					OFFSET 0.000000 14.575882 -1.770355
					CHANNELS 6 Xposition Yposition Zposition Xrotation Yrotation Zrotation
					JOINT Head
					{
						OFFSET 0.000000 6.720200 1.972200
						CHANNELS 6 Xposition Yposition Zposition Xrotation Yrotation Zrotation
						JOINT HeadTop_End
						{
							OFFSET 0.000000 20.999802 6.162800
							CHANNELS 6 Xposition Yposition Zposition Xrotation Yrotation Zrotation
							End Site
							{
								OFFSET 0.000000 21.885422 0.000000
							}
						}
					}
				}
				JOINT LeftShoulder
				{
					OFFSET 6.140200 12.877686 -1.799413
					CHANNELS 6 Xposition Yposition Zposition Xrotation Yrotation Zrotation
					JOINT LeftArm
					{
						OFFSET 12.558889 -3.380020 -0.058110
						CHANNELS 3 Xrotation Yrotation Zrotation
						JOINT LeftForeArm
						{
							OFFSET 25.560802 0.000000 0.000000
							CHANNELS 3 Xrotation Yrotation Zrotation
							JOINT LeftHand
							{
								OFFSET 23.404095 0.000000 0.000000
								CHANNELS 3 Xrotation Yrotation Zrotation
								JOINT LeftHandThumb1
								{
									OFFSET 4.128799 -1.207092 2.573364
									CHANNELS 6 Xposition Yposition Zposition Xrotation Yrotation Zrotation
									JOINT LeftHandThumb2
									{
										OFFSET 3.106247 -1.793396 1.793392
										CHANNELS 6 Xposition Yposition Zposition Xrotation Yrotation Zrotation
										JOINT LeftHandThumb3
										{
											OFFSET 2.788620 -1.610016 1.610011
											CHANNELS 6 Xposition Yposition Zposition Xrotation Yrotation Zrotation
											JOINT LeftHandThumb4
											{
												OFFSET 2.332939 -1.346924 1.346924
												CHANNELS 6 Xposition Yposition Zposition Xrotation Yrotation Zrotation
												End Site
												{
													OFFSET 2.098068 -1.306122 1.721387
												}
											}
										}
									}
								}
								JOINT LeftHandIndex1
								{
									OFFSET 11.999931 -0.333878 2.508170
									CHANNELS 6 Xposition Yposition Zposition Xrotation Yrotation Zrotation
									JOINT LeftHandIndex2
									{
										OFFSET 3.298477 0.000000 0.000000
										CHANNELS 6 Xposition Yposition Zposition Xrotation Yrotation Zrotation
										JOINT LeftHandIndex3
										{
											OFFSET 3.081009 0.000000 0.000000
											CHANNELS 6 Xposition Yposition Zposition Xrotation Yrotation Zrotation
											JOINT LeftHandIndex4
											{
												OFFSET 2.712151 0.000000 0.000000
												CHANNELS 6 Xposition Yposition Zposition Xrotation Yrotation Zrotation
												End Site
												{
													OFFSET 2.712097 -0.000549 -0.016291
												}
											}
										}
									}
								}
								JOINT LeftHandMiddle1
								{
									OFFSET 12.393951 0.000000 0.000000
									CHANNELS 6 Xposition Yposition Zposition Xrotation Yrotation Zrotation
									JOINT LeftHandMiddle2
									{
										OFFSET 3.432213 0.000000 0.000000
										CHANNELS 6 Xposition Yposition Zposition Xrotation Yrotation Zrotation
										JOINT LeftHandMiddle3
										{
											OFFSET 3.160919 0.000000 0.000000
											CHANNELS 6 Xposition Yposition Zposition Xrotation Yrotation Zrotation
											JOINT LeftHandMiddle4
											{
												OFFSET 2.876404 0.000000 0.000000
												CHANNELS 3 Xrotation Yrotation Zrotation
												End Site
												{
													OFFSET 2.876404 0.000000 0.000000
												}
											}
										}
									}
								}
								JOINT LeftHandRing1
								{
									OFFSET 12.360489 -0.116104 -2.298636
									CHANNELS 6 Xposition Yposition Zposition Xrotation Yrotation Zrotation
									JOINT LeftHandRing2
									{
										OFFSET 2.726105 0.000000 0.000000
										CHANNELS 6 Xposition Yposition Zposition Xrotation Yrotation Zrotation
										JOINT LeftHandRing3
										{
											OFFSET 2.620300 0.000000 0.000000
											CHANNELS 6 Xposition Yposition Zposition Xrotation Yrotation Zrotation
											JOINT LeftHandRing4
											{
												OFFSET 2.226906 0.000000 0.000000
												CHANNELS 6 Xposition Yposition Zposition Xrotation Yrotation Zrotation
												End Site
												{
													OFFSET 2.226898 0.000153 0.003196
												}
											}
										}
									}
								}
								JOINT LeftHandPinky1
								{
									OFFSET 10.793266 -0.303589 -4.149957
									CHANNELS 6 Xposition Yposition Zposition Xrotation Yrotation Zrotation
									JOINT LeftHandPinky2
									{
										OFFSET 2.734612 0.000000 0.000000
										CHANNELS 6 Xposition Yposition Zposition Xrotation Yrotation Zrotation
										JOINT LeftHandPinky3
										{
											OFFSET 2.194000 0.000000 0.000000
											CHANNELS 6 Xposition Yposition Zposition Xrotation Yrotation Zrotation
											JOINT LeftHandPinky4
											{
												OFFSET 1.975510 0.000000 0.000000
												CHANNELS 6 Xposition Yposition Zposition Xrotation Yrotation Zrotation
												End Site
												{
													OFFSET 1.975502 -0.000275 -0.005493
												}
											}
										}
									}
								}
							}
						}
					}
				}
				JOINT RightShoulder
				{
					OFFSET -6.140200 12.877701 -1.741290
					CHANNELS 6 Xposition Yposition Zposition Xrotation Yrotation Zrotation
					JOINT RightArm
					{
						OFFSET -12.558887 -3.380020 0.058096
						CHANNELS 3 Xrotation Yrotation Zrotation
						JOINT RightForeArm
						{
							OFFSET -25.571100 0.000000 -0.000001
							CHANNELS 3 Xrotation Yrotation Zrotation
							JOINT RightHand
							{
								OFFSET -23.401703 0.000000 -0.000001
								CHANNELS 3 Xrotation Yrotation Zrotation
								JOINT RightHandThumb1
								{
									OFFSET -4.237885 -1.241806 2.593891
									CHANNELS 6 Xposition Yposition Zposition Xrotation Yrotation Zrotation
									JOINT RightHandThumb2
									{
										OFFSET -3.173721 -1.832352 1.832350
										CHANNELS 6 Xposition Yposition Zposition Xrotation Yrotation Zrotation
										JOINT RightHandThumb3
										{
											OFFSET -2.734779 -1.578934 1.578928
											CHANNELS 6 Xposition Yposition Zposition Xrotation Yrotation Zrotation
											JOINT RightHandThumb4
											{
												OFFSET -2.254745 -1.301773 1.301779
												CHANNELS 6 Xposition Yposition Zposition Xrotation Yrotation Zrotation
												End Site
												{
													OFFSET -2.004616 -1.260025 1.693210
												}
											}
										}
									}
								}
								JOINT RightHandIndex1
								{
									OFFSET -12.582405 -0.171967 2.675169
									CHANNELS 6 Xposition Yposition Zposition Xrotation Yrotation Zrotation
									JOINT RightHandIndex2
									{
										OFFSET -3.117424 0.000000 0.000000
										CHANNELS 6 Xposition Yposition Zposition Xrotation Yrotation Zrotation
										JOINT RightHandIndex3
										{
											OFFSET -2.856110 0.000000 0.000000
											CHANNELS 6 Xposition Yposition Zposition Xrotation Yrotation Zrotation
											JOINT RightHandIndex4
											{
												OFFSET -2.534607 0.000000 0.000000
												CHANNELS 6 Xposition Yposition Zposition Xrotation Yrotation Zrotation
												End Site
												{
													OFFSET -2.534599 -0.000092 -0.005299
												}
											}
										}
									}
								}
								JOINT RightHandMiddle1
								{
									OFFSET -12.213303 0.000000 -0.000000
									CHANNELS 6 Xposition Yposition Zposition Xrotation Yrotation Zrotation
									JOINT RightHandMiddle2
									{
										OFFSET -3.479240 0.000000 0.000000
										CHANNELS 6 Xposition Yposition Zposition Xrotation Yrotation Zrotation
										JOINT RightHandMiddle3
										{
											OFFSET -3.226028 0.000000 0.000000
											CHANNELS 6 Xposition Yposition Zposition Xrotation Yrotation Zrotation
											JOINT RightHandMiddle4
											{
												OFFSET -2.928001 0.000000 0.000000
												CHANNELS 6 Xposition Yposition Zposition Xrotation Yrotation Zrotation
												End Site
												{
													OFFSET -2.927994 -0.000046 -0.002500
												}
											}
										}
									}
								}
								JOINT RightHandRing1
								{
									OFFSET -12.155838 -0.109528 -2.139221
									CHANNELS 6 Xposition Yposition Zposition Xrotation Yrotation Zrotation
									JOINT RightHandRing2
									{
										OFFSET -2.821602 0.000000 0.000000
										CHANNELS 6 Xposition Yposition Zposition Xrotation Yrotation Zrotation
										JOINT RightHandRing3
										{
											OFFSET -2.687714 0.000000 0.000000
											CHANNELS 6 Xposition Yposition Zposition Xrotation Yrotation Zrotation
											JOINT RightHandRing4
											{
												OFFSET -2.368401 0.000000 0.000000
												CHANNELS 6 Xposition Yposition Zposition Xrotation Yrotation Zrotation
												End Site
												{
													OFFSET -2.368408 0.000122 0.004098
												}
											}
										}
									}
								}
								JOINT RightHandPinky1
								{
									OFFSET -10.912514 -0.136993 -4.154601
									CHANNELS 6 Xposition Yposition Zposition Xrotation Yrotation Zrotation
									JOINT RightHandPinky2
									{
										OFFSET -2.640511 0.000000 0.000000
										CHANNELS 6 Xposition Yposition Zposition Xrotation Yrotation Zrotation
										JOINT RightHandPinky3
										{
											OFFSET -2.149010 0.000000 0.000000
											CHANNELS 6 Xposition Yposition Zposition Xrotation Yrotation Zrotation
											JOINT RightHandPinky4
											{
												OFFSET -1.888405 0.000000 0.000000
												CHANNELS 6 Xposition Yposition Zposition Xrotation Yrotation Zrotation
												End Site
												{
													OFFSET -1.888397 -0.000076 -0.002499
												}
											}
										}
									}
								}
							}
						}
					}
				}
			}
		}
	}
	JOINT LeftUpLeg
	{
		OFFSET 8.078200 -5.402397 -0.535900
		CHANNELS 6 Xposition Yposition Zposition Xrotation Yrotation Zrotation
		JOINT LeftLeg
		{
			OFFSET 0.166247 -42.704498 -2.695473
			CHANNELS 3 Xrotation Yrotation Zrotation
			JOINT LeftFoot
			{
				OFFSET -0.166255 -42.074757 -2.882279
				CHANNELS 3 Xrotation Yrotation Zrotation
				JOINT LeftToeBase
				{
					OFFSET 1.133370 -9.116460 13.321884
					CHANNELS 3 Xrotation Yrotation Zrotation
					JOINT LeftToe_End
					{
						OFFSET 0.591577 -0.054453 6.177401
						CHANNELS 3 Xrotation Yrotation Zrotation
						End Site
						{
							OFFSET 0.591577 -0.054453 6.177402
						}
					}
				}
			}
		}
	}
	JOINT RightUpLeg
	{
		OFFSET -8.078200 -5.402397 -0.751800
		CHANNELS 6 Xposition Yposition Zposition Xrotation Yrotation Zrotation
		JOINT RightLeg
		{
			OFFSET -0.166221 -42.704521 -2.464558
			CHANNELS 3 Xrotation Yrotation Zrotation
			JOINT RightFoot
			{
				OFFSET 0.166220 -42.074753 -2.968993
				CHANNELS 3 Xrotation Yrotation Zrotation
				JOINT RightToeBase
				{
					OFFSET -1.133402 -9.116828 13.416508
					CHANNELS 3 Xrotation Yrotation Zrotation
					JOINT RightToe_End
					{
						OFFSET -0.591581 -0.054615 6.151378
						CHANNELS 3 Xrotation Yrotation Zrotation
						End Site
						{
							OFFSET -0.591581 -0.054615 6.151378
						}
					}
				}
			}
		}
	}
}
MOTION
Frames: 4
Frame Time: 0.033333
1.757387 94.791031 721.599304 -0.583361 8.601328 -0.212066 -0.000017 9.717298 -1.180239 1.702630 -2.255596 1.039156 2.288919 -4.826258 0.430954 -2.298450 -4.854407 -0.342481 0.000003 14.575866 -1.770456 -4.442927 0.020788 -1.941456 0.000000 6.720206 1.972183 1.758443 0.825992 1.349292 -0.000004 20.999786 6.162746 0.000000 -0.000000 -0.000000 6.140201 12.877664 -1.799512 8.722060 -23.875123 4.332916 2.288704 8.532177 -62.351219 0.000004 -63.945208 0.000019 19.102916 -13.811729 12.587355 4.128688 -1.207086 2.573370 27.791944 8.069103 25.584729 3.106197 -1.793390 1.793397 -5.557632 22.892841 -20.679139 2.788588 -1.610113 1.609990 11.451798 -14.134236 18.904331 2.332837 -1.346933 1.346869 0.000000 0.000005 0.000001 11.999798 -0.333863 2.508164 4.250628 2.465908 1.996212 3.298501 0.000001 -0.000002 0.270920 2.482441 -16.994393 3.080938 -0.000079 0.000026 -0.019711 0.196972 -4.032982 2.712147 0.000014 -0.000001 0.000001 -0.000001 -0.000002 12.393812 -0.000007 -0.000007 0.150463 5.820293 -13.637356 3.432293 0.000052 0.000003 0.625860 3.469609 -27.399796 3.160966 0.000047 -0.000033 0.280745 1.874536 -16.280765 0.000002 -0.000004 0.000002 12.360399 -0.116104 -2.298642 0.697618 7.636908 -31.372203 2.726082 -0.000051 -0.000006 0.451204 2.068910 -17.914767 2.620291 -0.000017 0.000011 0.322174 1.281534 -13.326777 2.226888 0.000092 -0.000004 0.000001 -0.000000 0.000001 10.793135 -0.303552 -4.149961 2.199200 11.493200 -29.664560 2.734612 0.000001 0.000008 0.509327 2.729129 -29.630348 2.194005 0.000037 0.000002 0.084634 1.582615 -7.252874 1.975508 -0.000122 0.000035 0.000001 0.000003 0.000001 -6.140198 12.877668 -1.741394 -0.833874 0.414012 5.924768 33.135543 -12.822851 79.869657 0.000002 32.035377 -0.000014 31.659180 2.641059 7.169140 -4.237891 -1.241854 2.593979 16.570476 -14.990974 -14.879458 -3.173717 -1.832352 1.832312 7.081944 1.679613 -16.630431 -2.734752 -1.578936 1.578975 -13.302767 5.989281 9.208658 -2.254809 -1.301730 1.301758 0.000002 -0.000004 0.000004 -12.582407 -0.172025 2.675250 0.631438 2.976389 -1.333654 -3.117437 -0.000015 0.000028 0.655463 -3.429712 27.143286 -2.856133 -0.000008 -0.000070 -0.163619 -0.631724 17.829007 -2.534632 -0.000002 -0.000072 0.000001 0.000001 0.000001 -12.213311 -0.000028 0.000062 0.191025 -5.746459 9.942059 -3.479241 0.000035 0.000062 1.180223 -4.368709 38.006564 -3.226087 -0.000025 -0.000096 0.820381 -3.072782 31.051454 -2.928027 -0.000043 -0.000026 0.000000 0.000003 0.000001 -12.155844 -0.109531 -2.139087 1.553396 -9.251015 30.281340 -2.821597 0.000004 0.000094 0.747334 -2.654215 24.485415 -2.687679 0.000005 -0.000010 -0.121199 -0.279323 20.898074 -2.368347 -0.000044 0.000011 0.000001 0.000002 -0.000000 -10.912504 -0.137030 -4.154517 2.733921 -11.152802 37.651630 -2.640536 0.000014 -0.000043 1.755772 -4.473928 51.096287 -2.149035 -0.000007 -0.000003 -0.301531 -2.815846 45.263421 -1.888384 -0.000045 -0.000070 0.000002 -0.000004 0.000004 8.078179 -5.402393 -0.535966 6.299470 11.135782 3.299705 33.246574 -7.285405 7.093690 3.010231 -11.416764 -0.422631 -41.810074 -1.145459 2.832387 -0.000000 -0.000000 0.000000 -8.078226 -5.402394 -0.751791 -34.683656 -12.212552 -0.116983 26.201862 2.368620 -3.140975 1.342781 -3.913426 1.383174 -10.654170 0.000005 -0.000006 0.000001 0.000000 0.000001 
1.150305 94.978394 726.498291 -0.697954 8.653658 -1.285663 0.000013 9.717308 -1.180244 1.903456 -2.008015 1.731301 1.831157 -4.676330 0.565914 -2.792017 -4.688936 -0.174002 -0.000005 14.575876 -1.770325 -4.421732 0.057313 -2.139532 -0.000000 6.720199 1.972284 1.767245 0.817348 1.239892 0.000001 20.999817 6.162765 -0.000000 -0.000000 -0.000000 6.140193 12.877688 -1.799397 8.620438 -23.105149 4.089745 3.596915 10.652570 -64.965433 -0.000023 -66.010049 -0.000040 17.939929 -16.380020 10.618077 4.128726 -1.207069 2.573368 27.985225 8.268502 24.673601 3.106258 -1.793394 1.793386 -6.499027 21.722476 -17.952809 2.788549 -1.610007 1.609983 11.104149 -14.055002 17.399316 2.333003 -1.346972 1.346921 0.000001 -0.000003 -0.000001 11.999800 -0.333845 2.508178 3.575851 2.468291 4.220043 3.298363 0.000019 0.000007 0.269801 2.478809 -16.956969 3.081053 0.000015 -0.000018 -0.019846 0.193228 -3.996120 2.712045 0.000001 0.000007 -0.000002 -0.000001 0.000003 12.393819 0.000031 0.000018 0.176556 5.891921 -13.026268 3.432237 0.000008 -0.000020 0.625073 3.468024 -27.382211 3.160894 -0.000078 -0.000005 0.280225 1.872846 -16.262919 0.000002 0.000002 0.000002 12.360360 -0.116062 -2.298621 0.720691 7.669325 -30.894114 2.726143 -0.000119 0.000001 0.447102 2.059464 -17.811912 2.620323 -0.000045 0.000041 0.318874 1.271920 -13.224319 2.226894 -0.000094 0.000021 0.000002 -0.000003 -0.000001 10.793127 -0.303552 -4.149957 2.172234 11.499795 -29.293435 2.734574 -0.000044 0.000016 0.509849 2.730252 -29.642656 2.194040 -0.000040 0.000008 0.084835 1.583848 -7.265165 1.975502 0.000029 -0.000074 0.000002 0.000002 -0.000000 -6.140206 12.877710 -1.741220 -0.831555 1.303679 5.376758 34.286016 -12.302729 80.904520 0.000008 31.210573 -0.000024 29.944369 -0.658066 9.564234 -4.237906 -1.241812 2.593848 16.748372 -14.268224 -14.612136 -3.173745 -1.832317 1.832301 6.764995 1.440667 -16.607269 -2.734807 -1.578950 1.578864 -13.336576 6.097457 9.197331 -2.254712 -1.301793 1.301815 0.000003 -0.000003 -0.000001 -12.582402 -0.171939 2.675152 0.476767 2.696347 -0.365758 -3.117440 -0.000010 -0.000030 0.644026 -3.407339 26.894020 -2.856094 0.000039 -0.000009 -0.166305 -0.605892 17.580470 -2.534626 0.000015 0.000114 0.000000 0.000002 -0.000002 -12.213303 0.000044 -0.000050 0.254676 -6.168876 10.970115 -3.479254 0.000022 0.000008 1.176201 -4.363381 37.939829 -3.226038 0.000002 0.000084 0.817060 -3.067320 30.987520 -2.928062 -0.000045 -0.000041 0.000001 -0.000003 -0.000000 -12.155841 -0.109515 -2.139286 1.563156 -9.233993 31.040245 -2.821609 0.000002 0.000052 0.739964 -2.641469 24.337998 -2.687700 -0.000001 0.000064 -0.123332 -0.264386 20.751018 -2.368428 0.000004 -0.000049 0.000001 -0.000000 -0.000001 -10.912501 -0.136971 -4.154603 2.681012 -11.007391 38.250258 -2.640589 0.000015 0.000007 1.731786 -4.450905 50.764862 -2.148983 0.000006 0.000029 -0.314814 -2.780958 44.933656 -1.888391 0.000019 0.000027 0.000001 0.000001 0.000000 8.078222 -5.402407 -0.535998 2.804864 7.532839 4.850829 42.812483 -6.572220 7.532181 13.480422 -7.785202 -6.478558 -33.126626 -2.797294 7.297452 -0.000002 -0.000000 0.000000 -8.078193 -5.402405 -0.751815 -30.861288 -12.391720 2.052937 25.666034 1.930560 -2.513059 6.385832 -5.069313 -2.865056 -4.998152 0.000001 -0.000002 -0.000000 0.000000 -0.000000 
0.593354 95.418480 731.397278 -0.528433 8.195619 -2.461201 -0.000001 9.717301 -1.180246 1.992042 -1.558031 2.522601 1.580604 -4.264166 0.709647 -3.083836 -4.254536 0.000549 0.000003 14.575904 -1.770397 -4.330226 0.000372 -2.150132 -0.000004 6.720212 1.972274 1.822625 0.752986 1.253554 -0.000001 20.999817 6.162886 -0.000000 0.000000 -0.000000 6.140202 12.877697 -1.799456 8.541128 -22.301572 3.923644 5.261415 10.678960 -67.864985 0.000016 -66.000617 0.000000 15.944797 -17.721262 11.134574 4.128754 -1.207131 2.573388 28.180812 8.454283 23.778298 3.106118 -1.793408 1.793364 -7.196758 20.712487 -16.208493 2.788633 -1.610078 1.610039 11.115293 -13.666954 17.669177 2.332967 -1.346982 1.346864 -0.000001 0.000003 0.000001 11.999905 -0.333907 2.508181 2.984627 2.335153 7.520079 3.298470 0.000029 -0.000005 0.267701 2.471951 -16.885483 3.081092 0.000015 -0.000012 -0.020061 0.186063 -3.925527 2.712174 -0.000031 -0.000008 0.000003 -0.000001 0.000003 12.393927 -0.000022 0.000005 0.202198 5.925064 -11.644814 3.432271 0.000011 0.000001 0.624694 3.467266 -27.373605 3.160963 -0.000133 -0.000016 0.279939 1.872009 -16.254120 0.000001 -0.000003 -0.000000 12.360452 -0.116127 -2.298625 0.729756 7.662938 -29.585118 2.726026 -0.000103 0.000018 0.443664 2.051537 -17.725261 2.620278 -0.000032 -0.000006 0.316157 1.263814 -13.138169 2.226882 -0.000000 0.000022 0.000002 0.000001 0.000000 10.793203 -0.303597 -4.149944 2.058337 11.409565 -28.389123 2.734612 -0.000019 0.000030 0.510036 2.730684 -29.647389 2.194044 0.000008 -0.000008 0.084954 1.584319 -7.269869 1.975514 0.000046 -0.000003 0.000001 -0.000002 -0.000002 -6.140201 12.877721 -1.741385 -0.831539 2.796474 5.133677 33.145310 -10.879048 80.723007 0.000002 29.664563 -0.000024 28.161095 -2.299679 11.489124 -4.237864 -1.241827 2.593854 16.601429 -12.672571 -14.501057 -3.173736 -1.832321 1.832323 6.294988 0.421749 -16.252990 -2.734788 -1.578990 1.578961 -13.401894 6.306646 9.176195 -2.254759 -1.301740 1.301747 -0.000003 -0.000002 0.000003 -12.582384 -0.172018 2.675123 0.125978 2.000468 2.030455 -3.117419 -0.000060 0.000162 0.641304 -3.401991 26.834599 -2.856157 0.000020 -0.000066 -0.166931 -0.599727 17.521220 -2.534586 -0.000011 0.000009 -0.000001 0.000002 0.000001 -12.213294 -0.000047 -0.000030 0.363791 -6.742549 13.438376 -3.479309 0.000008 0.000039 1.172017 -4.357787 37.869656 -3.226027 -0.000030 -0.000068 0.813583 -3.061551 30.919935 -2.928045 -0.000014 -0.000039 -0.000001 -0.000000 -0.000001 -12.155863 -0.109549 -2.139309 1.599170 -9.221472 32.951971 -2.821603 -0.000002 0.000021 0.733021 -2.629406 24.198585 -2.687729 0.000001 0.000035 -0.125307 -0.250246 20.612138 -2.368428 -0.000015 0.000053 -0.000001 -0.000002 -0.000001 -10.912513 -0.137015 -4.154659 2.695109 -10.899593 39.668362 -2.640513 0.000016 0.000065 1.697169 -4.417143 50.283279 -2.148902 -0.000019 0.000069 -0.333757 -2.730166 44.454467 -1.888392 -0.000044 0.000023 0.000000 -0.000003 0.000001 8.078189 -5.402409 -0.535874 -4.109422 2.731389 5.242042 56.602638 -3.131737 7.282515 20.447356 -4.908438 -14.306747 -0.723507 0.000005 0.000002 -0.000002 -0.000000 0.000001 -8.078201 -5.402392 -0.751826 -28.244586 -11.700821 3.891814 28.367044 1.994183 -1.748770 0.575936 -4.623754 -3.491432 -3.677250 0.000000 -0.000001 0.000000 0.000000 -0.000000 
0.228521 96.126038 736.296265 -0.247699 8.200056 -3.708711 -0.000003 9.717305 -1.180301 1.993440 -1.292117 3.064575 1.606767 -3.832702 1.131075 -3.060579 -3.835683 0.441002 -0.000000 14.575869 -1.770299 -4.319137 -0.122811 -2.066023 0.000002 6.720204 1.972289 1.830481 0.650118 1.306651 0.000001 20.999802 6.162806 -0.000000 0.000000 -0.000000 6.140199 12.877673 -1.799376 8.407322 -21.600408 3.529325 5.952511 9.471142 -70.807649 0.000005 -62.751946 -0.000020 15.066106 -18.652384 10.866887 4.128755 -1.207104 2.573306 28.377602 8.618647 22.907396 3.106273 -1.793340 1.793398 -7.642960 19.984985 -15.635976 2.788637 -1.610027 1.609997 11.066321 -14.347538 17.088092 2.333019 -1.346924 1.346961 -0.000000 0.000003 0.000002 11.999886 -0.333886 2.508113 2.347093 2.235429 9.280488 3.298541 0.000003 0.000023 0.263002 2.456399 -16.724954 3.080963 0.000004 0.000005 -0.020551 0.169873 -3.765887 2.712087 -0.000046 0.000002 0.000000 0.000001 0.000001 12.393929 0.000006 -0.000037 0.245862 6.130435 -11.188745 3.432184 0.000026 -0.000050 0.622316 3.462466 -27.319997 3.160952 -0.000103 0.000015 0.278324 1.866930 -16.200601 0.000001 0.000002 0.000000 12.360466 -0.116100 -2.298675 0.683687 7.559966 -28.986363 2.726138 -0.000040 0.000058 0.437241 2.036564 -17.562144 2.620283 0.000006 0.000014 0.310970 1.248479 -12.975148 2.226864 0.000063 0.000009 -0.000002 0.000000 0.000002 10.793189 -0.303564 -4.150005 2.198750 11.679812 -28.258116 2.734527 -0.000064 -0.000047 0.504165 2.717957 -29.508015 2.193992 0.000020 -0.000031 0.082301 1.570552 -7.130694 1.975500 -0.000013 0.000003 -0.000002 0.000001 0.000001 -6.140200 12.877709 -1.741230 -0.808742 4.054090 4.550048 30.251792 -8.800805 79.539097 -0.000014 28.658016 0.000003 26.828870 -2.126383 12.777455 -4.237885 -1.241850 2.593897 15.482926 -11.608665 -15.324629 -3.173690 -1.832340 1.832386 6.352566 -1.139125 -15.422815 -2.734813 -1.578895 1.578909 -13.488422 6.585111 9.148845 -2.254766 -1.301758 1.301770 0.000001 -0.000004 0.000002 -12.582396 -0.171989 2.675224 -0.229923 1.307137 4.864373 -3.117466 -0.000007 -0.000047 0.648831 -3.416766 26.999022 -2.856144 0.000010 0.000108 -0.165204 -0.616756 17.685137 -2.534619 -0.000003 -0.000099 -0.000000 -0.000000 -0.000004 -12.213318 0.000011 0.000021 0.531464 -7.366877 16.404260 -3.479256 0.000016 0.000073 1.177612 -4.365246 37.963090 -3.226047 -0.000035 0.000045 0.818512 -3.069716 31.015527 -2.927993 -0.000015 -0.000063 -0.000000 -0.000000 -0.000000 -12.155838 -0.109531 -2.139208 1.627028 -9.192984 35.395963 -2.821700 0.000023 -0.000002 0.730610 -2.625214 24.150251 -2.687630 -0.000030 0.000047 -0.125986 -0.245355 20.564137 -2.368415 0.000015 -0.000052 -0.000001 -0.000001 -0.000000 -10.912508 -0.136974 -4.154545 2.778040 -10.876338 41.426812 -2.640469 0.000006 0.000019 1.671561 -4.391828 49.924653 -2.149049 -0.000004 0.000105 -0.347577 -2.692229 44.097614 -1.888406 -0.000065 0.000049 0.000001 -0.000002 0.000000 8.078187 -5.402395 -0.535857 -10.359639 0.577576 5.729783 64.455682 2.302483 6.996296 17.893757 -3.680914 -14.138761 -0.950848 0.000002 -0.000004 0.000001 -0.000002 0.000001 -8.078217 -5.402397 -0.751792 -24.279051 -11.610185 5.951632 27.326641 1.794503 -1.322682 -2.597243 -4.895363 -4.264141 -3.433232 0.000003 0.000000 -0.000000 -0.000000 0.000000 
